<?xml version="1.0" encoding="utf-8"?>
<?xml-stylesheet type="text/xsl" href="rss1.xsl"?>
<rss version="2.0" xmlns:atom="http://www.w3.org/2005/Atom" xmlns:content="http://purl.org/rss/1.0/modules/content/" xmlns:dc="http://purl.org/dc/elements/1.1/" xmlns:media="http://search.yahoo.com/mrss/">
<channel>
 <title>Getty</title>
 <link>http://www.gettyimg.com/</link>
 <atom:link href="http://www.gettyimg.com/" rel="self" type="application/rss+xml" />

 
                <item>
                <title><![CDATA[【DVD】DVD9 - Alanis Morissette - Feast on Scraps (DVD/CD) - 2002 [ISO/FLAC]]]></title>
                <link><![CDATA[https://sharemania.us/threads/alanis-morissette-feast-on-scraps-dvd-cd-2002-iso-flac.232126/]]></link>
                <description><![CDATA[<article>
<blockquote class="messageText SelectQuoteContainer ugc baseHtml">
<img src="https://i.imgur.com/tTsGNEE.jpg" class="bbCodeImage LbImage" alt="[​IMG]" data-url="https://i.imgur.com/tTsGNEE.jpg" style=""> <img src="https://i.imgur.com/EmiDa0Y.jpg" class="bbCodeImage LbImage" alt="[​IMG]" data-url="https://i.imgur.com/EmiDa0Y.jpg" style=""> <br>
<img src="https://i.imgur.com/nBTzRDM.jpg" class="bbCodeImage LbImage" alt="[​IMG]" data-url="https://i.imgur.com/nBTzRDM.jpg" style=""> <br>
<img src="https://i.imgur.com/GC7fpzc.jpg" class="bbCodeImage LbImage" alt="[​IMG]" data-url="https://i.imgur.com/GC7fpzc.jpg" style=""> <br>
<div class="bbCodeBlock bbCodeCode">
<div class="type">Code:</div>
<pre>Alanis Morissette - Feast on Scraps (DVD/CD) - 2002
DVD-1 Baba
DVD-2 Right Through You
DVD-3 21 Things I Want In A Lover
DVD-4 Hand In My Pocket
DVD-5 Purgatorying 1
DVD-6 Unprodigal Daughter
DVD-7 Flinch
DVD-8 All I Really Want
DVD-9 Precious Illusions
DVD-10 Sympathetic Character
DVD-11 Purgatorying 2
DVD-12 So Unsexy
DVD-13 Head Over Feet
DVD-14 Purgatorying 3
DVD-15 You Oughta Know
DVD-16 Hands Clean
DVD-17 Uninvited
DVD-18 Ironic
DVD-19 You Learn
DVD-20 That Particular Time
DVD-21 Thank You
CD-1 Fear Of Bliss
CD-2 Bent For You
CD-3 Sorry To Myself
CD-4 Sister Blister
CD-5 Offer
CD-6 Unprodigal Daughter
CD-7 Simple Together
CD-8 Purgatorying
CD-9 HandS Clean (Acoustic)</pre>
</div>
<div class="ToggleTriggerAnchor bbCodeSpoilerContainer">
<button type="button" class="button bbCodeSpoilerButton ToggleTrigger Tooltip JsOnly" data-target="> .SpoilerTarget"><span>Spoiler: <span class="SpoilerTitle">MediaInfo</span></span></button>
<div class="SpoilerTarget bbCodeSpoilerText">Format : ISO 9660 / DVD Video<br>
Format profile : Program<br>
File size : 7.51 GiB<br>
Duration : 2 h 19 min<br>
Overall bit rate mode : Variable<br>
Overall bit rate : 7 689 kb/s<br>
Frame rate : 29.970 FPS<br>
Movie name : ALANIS<br>
Encoded date : 2023-09-23 17:17:43.00+61:00<br>
<br>
Video<br>
ID : 224 (0xE0)<br>
Format : MPEG Video<br>
Format version : Version 2<br>
Format profile : Main@Main<br>
Format settings : CustomMatrix / BVOP<br>
Format settings, BVOP : Yes<br>
Format settings, Matrix : Custom<br>
Format settings, GOP : M=3, N=12<br>
Format settings, picture struc : Frame<br>
Duration : 2 h 19 min<br>
Bit rate mode : Variable<br>
Bit rate : 5 382 kb/s<br>
Maximum bit rate : 7 716 kb/s<br>
Width : 720 pixels<br>
Height : 480 pixels<br>
Display aspect ratio : 16:9<br>
Frame rate : 29.970 (29970/1000) FPS<br>
Original frame rate : 29.970 (30000/1001) FPS<br>
Standard : NTSC<br>
Color space : YUV<br>
Chroma subsampling : 4:2:0<br>
Bit depth : 8 bits<br>
Scan type : Interlaced<br>
Scan order : Top Field First<br>
Compression mode : Lossy<br>
Bits/(Pixel*Frame) : 0.520<br>
Time code of first frame : 00:59:59;06<br>
Time code source : Group of pictures header<br>
GOP, Open/Closed : Open<br>
GOP, Open/Closed of first fram : Closed<br>
Stream size : 5.25 GiB (70%)<br>
Source : VIDEO_TS\VTS_01_0.IFO<br>
<br>
Audio #1<br>
ID : 189 (0xBD)-129 (0x81)<br>
Format : AC-3<br>
Format/Info : Audio Coding 3<br>
Commercial name : Dolby Digital<br>
Muxing mode : DVD-Video<br>
Duration : 2 h 19 min<br>
Bit rate mode : Constant<br>
Bit rate : 448 kb/s<br>
Channel(s) : 2 channels<br>
Channel(s)_Original : 6 channels<br>
ChannelLayout_Original : L R C LFE Ls Rs<br>
Sampling rate : 48.0 kHz<br>
Frame rate : 31.250 FPS (1536 SPF)<br>
Compression mode : Lossy<br>
Stream size : 448 MiB (6%)<br>
Language : English<br>
Service kind : Complete Main<br>
Source : VIDEO_TS\VTS_01_0.IFO<br>
<br>
Audio #2<br>
ID : 189 (0xBD)-160 (0xA0)<br>
Format : PCM<br>
Format/Info : Audio Coding 3<br>
Format settings : Big / Signed<br>
Muxing mode : DVD-Video<br>
Duration : 2 h 19 min<br>
Bit rate mode : Constant<br>
Bit rate : 1 536 kb/s<br>
Channel(s) : 6 channels<br>
Channel(s)_Original : 2 channels<br>
Sampling rate : 48.0 kHz<br>
Bit depth : 16 bits<br>
Compression mode : Lossy<br>
Stream size : 1.50 GiB (20%)<br>
Language : English<br>
Source : VIDEO_TS\VTS_01_0.IFO<br>
<br>
Text #1<br>
ID : 224 (0xE0)-CC3<br>
Format : EIA-608<br>
Format/Info : Run-length encoding<br>
Muxing mode, more info : Muxed in Video #1<br>
Duration : 2 h 19 min<br>
Start time (commands) : 247 ms<br>
Start time : 848 ms<br>
Bit rate mode : Constant<br>
Bit depth : 2 bits<br>
Stream size : 0.00 Byte (0%)<br>
Language : English<br>
Count of frames before first e : 18<br>
Type of the first event : PopOn<br>
Source : VIDEO_TS\VTS_01_0.IFO<br>
<br>
Text #2<br>
ID : 189 (0xBD)-33 (0x21)<br>
Format : RLE<br>
Format/Info : Run-length encoding<br>
Duration : 2 h 19 min<br>
Bit depth : 2 bits<br>
Language : Japanese<br>
Source : VIDEO_TS\VTS_01_0.IFO<br>
<br>
Text #3<br>
ID : 189 (0xBD)-34 (0x22)<br>
Format : RLE<br>
Format/Info : Run-length encoding<br>
Duration : 2 h 19 min<br>
Bit depth : 2 bits<br>
Language : Spanish<br>
Source : VIDEO_TS\VTS_01_0.IFO<br>
<br>
Text #4<br>
ID : 189 (0xBD)-35 (0x23)<br>
Format : RLE<br>
Format/Info : Run-length encoding<br>
Duration : 2 h 19 min<br>
Bit depth : 2 bits<br>
Language : Portuguese<br>
Source : VIDEO_TS\VTS_01_0.IFO<br>
<br>
Menu<br>
Duration : 2 h 19 min<br>
00:00:00.000 : Chapter 1<br>
00:03:39.600 : Chapter 2<br>
00:11:11.733 : Chapter 3<br>
00:15:49.733 : Chapter 4<br>
00:23:45.000 : Chapter 5<br>
00:28:23.500 : Chapter 6<br>
00:32:03.800 : Chapter 7<br>
00:37:59.733 : Chapter 8<br>
00:47:57.567 : Chapter 9<br>
00:55:25.333 : Chapter 10<br>
01:01:26.200 : Chapter 11<br>
01:07:55.333 : Chapter 12<br>
01:13:27.533 : Chapter 13<br>
01:20:28.300 : Chapter 14<br>
01:26:49.667 : Chapter 15<br>
01:29:37.667 : Chapter 16<br>
01:38:59.667 : Chapter 17<br>
01:43:49.167 : Chapter 18<br>
01:50:39.167 : Chapter 19<br>
01:56:53.667 : Chapter 20<br>
02:03:56.167 : Chapter 21<br>
02:10:30.167 : Chapter 22<br>
List (Audio) : 0 / 1<br>
List (Subtitles 4/3) : 0 / 0 / 0 / 0<br>
List (Subtitles Wide) : 0 / 1 / 2 / 3<br>
List (Subtitles Letterbox) : 0 / 1 / 2 / 3<br>
List (Subtitles Pan&amp;Scan) : 0 / 0 / 0 / 0<br>
Source : VIDEO_TS\VTS_01_0.IFO</div>
</div>
<div class="bbCodeBlock bbCodeVfcHH HiddenContent">
<div class="attribution type">Hidden Content:</div>
<blockquote>You must either reply or click 'Like' to see the hidden information contained here.</blockquote>
</div>Password:
<div class="bbCodeBlock bbCodeVfcHH HiddenContent">
<div class="attribution type">Hidden Content:</div>
<blockquote>You must reply before you can see the hidden data contained here.</blockquote>
</div>
<div class="messageTextEndMarker">&nbsp;</div>
</blockquote>
</article>]]></description>
                <author><![CDATA[JrAleixo]]></author>
                </item>

                </channel></rss>